<?xml version="1.0" encoding="utf-8"?>
<!-- Generator: Adobe Illustrator 25.0.1, SVG Export Plug-In . SVG Version: 6.00 Build 0)  -->
<svg version="1.1" id="Layer_1" xmlns="http://www.w3.org/2000/svg" xmlns:xlink="http://www.w3.org/1999/xlink" x="0px" y="0px"
	 viewBox="0 0 647 758" style="enable-background:new 0 0 647 758;" xml:space="preserve">
<style type="text/css">
	.st0{fill:#12001D;}
	.st1{fill:none;stroke:#000000;stroke-width:3;stroke-miterlimit:10;}
	.st2{fill:none;stroke:#000000;stroke-width:4;stroke-miterlimit:10;}
	.st3{fill:none;stroke:#FF006E;stroke-width:8;stroke-miterlimit:10;}
	.st4{fill:none;stroke:#FFFFFF;stroke-width:3;stroke-miterlimit:10;}
	.st5{fill:none;stroke:#FFFFFF;stroke-width:4;stroke-miterlimit:10;}
	.st6{fill:none;stroke:#FFBE0B;stroke-width:3;stroke-miterlimit:10;}
	.st7{font-family:'Roboto-Thin';}
	.st8{font-size:136.7775px;}
	.st9{fill:#FFFFFF;}
</style>
<rect x="-1295" y="-630" class="st0" width="541" height="522"/>
<image style="overflow:visible;" width="973" height="732" xlink:href="D8C2886F.jpg"  transform="matrix(1 0 0 1 -7812 -7808)">
</image>
<image style="overflow:visible;" width="973" height="732" xlink:href="D8C2886D.jpg"  transform="matrix(0.5506 0 0 0.5378 -1140 20)">
</image>
<g>
	<image style="overflow:visible;" width="522" height="522" xlink:href="D8C28873.png"  transform="matrix(1 0 0 1 69 2)">
	</image>
</g>
<g>
	<path class="st1" d="M1354.1-52.4c-14.6,0.9-26.5,12.7-27.6,27.3c-0.4,5,0.6,9.8,2.4,14c0.2,0.5,0.6,0.9,1.1,1.3L1353.5,6
		c0.5,0.3,1,0.5,1.5,0.5c0.3,0,0.6,0,1,0c16.3,0,29.5-13.2,29.5-29.5C1385.5-39.9,1371.3-53.5,1354.1-52.4z"/>
	<path class="st1" d="M1327.9,1.3l18.4,11.9c2.7,1.8,3.5,5.4,1.7,8.1v0c-1.8,2.7-5.4,3.5-8.1,1.7L1321.6,11
		c-2.7-1.8-3.5-5.4-1.7-8.1S1325.2-0.5,1327.9,1.3z"/>
	<path class="st1" d="M1314.5,19.5"/>
	<path class="st1" d="M1336.5,33.5l-22-14c0,0-36.5,51.3-23,60C1305,88.2,1336.5,33.5,1336.5,33.5z"/>
	<circle class="st2" cx="1331" cy="20" r="116"/>
	<path class="st2" d="M1288.5,90c0,0-4.3,18.5,14.5,31c15,10,41.3,14.2,41.3,14.2"/>
</g>
<g>
	<path class="st3" d="M374.1,125.7c-27.7,1.7-50.4,24.1-52.4,51.9c-0.7,9.5,1,18.6,4.6,26.7c0.4,1,1.1,1.8,2,2.4l44.5,30
		c0.9,0.6,1.9,0.9,2.9,1c0.6,0,1.2,0,1.8,0c31,0,56-25.1,56-56C433.7,149.5,406.6,123.7,374.1,125.7z"/>
	<path class="st3" d="M324.2,227.7l34.9,22.6c5.1,3.3,6.6,10.2,3.3,15.3v0c-3.3,5.1-10.2,6.6-15.3,3.3l-34.9-22.6
		c-5.1-3.3-6.6-10.2-3.3-15.3C312.3,225.9,319.1,224.4,324.2,227.7z"/>
	<path class="st3" d="M298.8,262.4"/>
	<path class="st3" d="M340.6,289l-41.8-26.6c0,0-69.4,97.5-43.7,114C280.8,392.9,340.6,289,340.6,289z"/>
	<circle class="st3" cx="330.1" cy="263.3" r="220.4"/>
	<path class="st3" d="M249.4,396.2c0,0-8.2,35.1,27.6,59c28.5,19,78.4,27.1,78.4,27.1"/>
</g>
<g>
	<path class="st4" d="M374.1,125.7c-27.7,1.7-50.4,24.1-52.4,51.9c-0.7,9.5,1,18.6,4.6,26.7c0.4,1,1.1,1.8,2,2.4l44.5,30
		c0.9,0.6,1.9,0.9,2.9,1c0.6,0,1.2,0,1.8,0c31,0,56-25.1,56-56C433.7,149.5,406.6,123.7,374.1,125.7z"/>
	<path class="st4" d="M324.2,227.7l34.9,22.6c5.1,3.3,6.6,10.2,3.3,15.3v0c-3.3,5.1-10.2,6.6-15.3,3.3l-34.9-22.6
		c-5.1-3.3-6.6-10.2-3.3-15.3C312.3,225.9,319.1,224.4,324.2,227.7z"/>
	<path class="st4" d="M298.8,262.4"/>
	<path class="st4" d="M340.6,289l-41.8-26.6c0,0-69.4,97.5-43.7,114C280.8,392.9,340.6,289,340.6,289z"/>
	<circle class="st5" cx="330.1" cy="263.3" r="220.4"/>
	<path class="st5" d="M249.4,396.2c0,0-8.2,35.1,27.6,59c28.5,19,78.4,27.1,78.4,27.1"/>
</g>
<g>
	<image style="overflow:visible;" width="675" height="233" xlink:href="D8C28875.png"  transform="matrix(1 0 0 1 -15 569)">
	</image>
</g>
<g>
	<text transform="matrix(1 0 0 1 23.5894 725.9232)" class="st6 st7 st8">KARAOKE</text>
</g>
<g>
	<text transform="matrix(1 0 0 1 23.9254 725.684)" class="st9 st7 st8">KARAOKE</text>
</g>
<rect x="-1134" y="443" class="st0" width="541" height="522"/>
<g>
	<image style="overflow:visible;" width="493" height="493" xlink:href="D8C28877.png"  transform="matrix(1 0 0 1 -1106 458)">
	</image>
</g>
<g>
	<path class="st3" d="M-818.3,575.5c-26,1.6-47.2,22.6-49.1,48.6c-0.6,8.9,1,17.4,4.3,25c0.4,0.9,1.1,1.7,1.9,2.2l41.7,28.1
		c0.8,0.5,1.8,0.9,2.7,0.9c0.6,0,1.1,0,1.7,0c29,0,52.5-23.5,52.5-52.5C-762.5,597.8-787.8,573.7-818.3,575.5z"/>
	<path class="st3" d="M-865,671.1l32.7,21.2c4.8,3.1,6.2,9.5,3.1,14.3v0c-3.1,4.8-9.5,6.2-14.3,3.1l-32.7-21.2
		c-4.8-3.1-6.2-9.5-3.1-14.3C-876.2,669.4-869.8,668-865,671.1z"/>
	<path class="st3" d="M-888.9,703.6"/>
	<path class="st3" d="M-849.7,728.5l-39.2-24.9c0,0-65,91.4-40.9,106.8C-905.7,825.9-849.7,728.5-849.7,728.5z"/>
	<circle class="st3" cx="-859.5" cy="704.5" r="206.5"/>
	<path class="st3" d="M-935.2,829c0,0-7.7,32.9,25.8,55.3c26.7,17.8,73.5,25.4,73.5,25.4"/>
</g>
<g>
	<path class="st4" d="M-818.3,575.5c-26,1.6-47.2,22.6-49.1,48.6c-0.6,8.9,1,17.4,4.3,25c0.4,0.9,1.1,1.7,1.9,2.2l41.7,28.1
		c0.8,0.5,1.8,0.9,2.7,0.9c0.6,0,1.1,0,1.7,0c29,0,52.5-23.5,52.5-52.5C-762.5,597.8-787.8,573.7-818.3,575.5z"/>
	<path class="st4" d="M-865,671.1l32.7,21.2c4.8,3.1,6.2,9.5,3.1,14.3v0c-3.1,4.8-9.5,6.2-14.3,3.1l-32.7-21.2
		c-4.8-3.1-6.2-9.5-3.1-14.3C-876.2,669.4-869.8,668-865,671.1z"/>
	<path class="st4" d="M-888.9,703.6"/>
	<path class="st4" d="M-849.7,728.5l-39.2-24.9c0,0-65,91.4-40.9,106.8C-905.7,825.9-849.7,728.5-849.7,728.5z"/>
	<circle class="st5" cx="-859.5" cy="704.5" r="206.5"/>
	<path class="st5" d="M-935.2,829c0,0-7.7,32.9,25.8,55.3c26.7,17.8,73.5,25.4,73.5,25.4"/>
</g>
</svg>
